<mxfile host="app.diagrams.net" modified="2021-10-22T10:42:26.207Z" agent="5.0 (Windows NT 10.0; Win64; x64) AppleWebKit/537.36 (KHTML, like Gecko) Chrome/94.0.4606.81 Safari/537.36" etag="4VCnG9sG6xTtPwHk9jDk" version="15.5.8" type="github">
  <diagram id="Q_428xpvHdlZ_yEPxDv1" name="Page-1">
    <mxGraphModel dx="1422" dy="839" grid="1" gridSize="10" guides="1" tooltips="1" connect="1" arrows="1" fold="1" page="1" pageScale="1" pageWidth="850" pageHeight="1100" math="0" shadow="0">
      <root>
        <mxCell id="0" />
        <mxCell id="1" parent="0" />
        <mxCell id="ZA7bM_wyjtu-T4g4M8Mq-10" value="Librarian" style="swimlane;fontStyle=0;childLayout=stackLayout;horizontal=1;startSize=26;horizontalStack=0;resizeParent=1;resizeParentMax=0;resizeLast=0;collapsible=1;marginBottom=0;align=center;fontSize=14;" parent="1" vertex="1">
          <mxGeometry x="260" y="280" width="160" height="116" as="geometry" />
        </mxCell>
        <mxCell id="ZA7bM_wyjtu-T4g4M8Mq-11" value="0000" style="text;strokeColor=none;fillColor=none;spacingLeft=4;spacingRight=4;overflow=hidden;rotatable=0;points=[[0,0.5],[1,0.5]];portConstraint=eastwest;fontSize=12;" parent="ZA7bM_wyjtu-T4g4M8Mq-10" vertex="1">
          <mxGeometry y="26" width="160" height="30" as="geometry" />
        </mxCell>
        <mxCell id="F_n1LyjabMQ1kfWwBXyr-1" value="Item 3" style="text;strokeColor=none;fillColor=none;spacingLeft=4;spacingRight=4;overflow=hidden;rotatable=0;points=[[0,0.5],[1,0.5]];portConstraint=eastwest;fontSize=12;" parent="ZA7bM_wyjtu-T4g4M8Mq-10" vertex="1">
          <mxGeometry y="56" width="160" height="30" as="geometry" />
        </mxCell>
        <mxCell id="ZA7bM_wyjtu-T4g4M8Mq-13" value="Item 3" style="text;strokeColor=none;fillColor=none;spacingLeft=4;spacingRight=4;overflow=hidden;rotatable=0;points=[[0,0.5],[1,0.5]];portConstraint=eastwest;fontSize=12;" parent="ZA7bM_wyjtu-T4g4M8Mq-10" vertex="1">
          <mxGeometry y="86" width="160" height="30" as="geometry" />
        </mxCell>
        <mxCell id="NOb7rSY4H2DuV765HtXx-1" value="BookTitle" style="swimlane;fontStyle=0;childLayout=stackLayout;horizontal=1;startSize=26;horizontalStack=0;resizeParent=1;resizeParentMax=0;resizeLast=0;collapsible=1;marginBottom=0;align=center;fontSize=14;" vertex="1" parent="1">
          <mxGeometry x="470" y="80" width="160" height="116" as="geometry" />
        </mxCell>
        <mxCell id="NOb7rSY4H2DuV765HtXx-2" value="0000" style="text;strokeColor=none;fillColor=none;spacingLeft=4;spacingRight=4;overflow=hidden;rotatable=0;points=[[0,0.5],[1,0.5]];portConstraint=eastwest;fontSize=12;" vertex="1" parent="NOb7rSY4H2DuV765HtXx-1">
          <mxGeometry y="26" width="160" height="30" as="geometry" />
        </mxCell>
        <mxCell id="NOb7rSY4H2DuV765HtXx-3" value="Item 3" style="text;strokeColor=none;fillColor=none;spacingLeft=4;spacingRight=4;overflow=hidden;rotatable=0;points=[[0,0.5],[1,0.5]];portConstraint=eastwest;fontSize=12;" vertex="1" parent="NOb7rSY4H2DuV765HtXx-1">
          <mxGeometry y="56" width="160" height="30" as="geometry" />
        </mxCell>
        <mxCell id="NOb7rSY4H2DuV765HtXx-4" value="Item 3" style="text;strokeColor=none;fillColor=none;spacingLeft=4;spacingRight=4;overflow=hidden;rotatable=0;points=[[0,0.5],[1,0.5]];portConstraint=eastwest;fontSize=12;" vertex="1" parent="NOb7rSY4H2DuV765HtXx-1">
          <mxGeometry y="86" width="160" height="30" as="geometry" />
        </mxCell>
        <mxCell id="NOb7rSY4H2DuV765HtXx-27" style="edgeStyle=orthogonalEdgeStyle;rounded=0;orthogonalLoop=1;jettySize=auto;html=1;entryX=0.5;entryY=0;entryDx=0;entryDy=0;endArrow=none;endFill=0;" edge="1" parent="1" source="NOb7rSY4H2DuV765HtXx-5" target="NOb7rSY4H2DuV765HtXx-14">
          <mxGeometry relative="1" as="geometry" />
        </mxCell>
        <mxCell id="NOb7rSY4H2DuV765HtXx-5" value="Copy" style="swimlane;fontStyle=0;childLayout=stackLayout;horizontal=1;startSize=26;horizontalStack=0;resizeParent=1;resizeParentMax=0;resizeLast=0;collapsible=1;marginBottom=0;align=center;fontSize=14;" vertex="1" parent="1">
          <mxGeometry x="40" y="80" width="160" height="116" as="geometry" />
        </mxCell>
        <mxCell id="NOb7rSY4H2DuV765HtXx-6" value="0000" style="text;strokeColor=none;fillColor=none;spacingLeft=4;spacingRight=4;overflow=hidden;rotatable=0;points=[[0,0.5],[1,0.5]];portConstraint=eastwest;fontSize=12;" vertex="1" parent="NOb7rSY4H2DuV765HtXx-5">
          <mxGeometry y="26" width="160" height="30" as="geometry" />
        </mxCell>
        <mxCell id="NOb7rSY4H2DuV765HtXx-7" value="Item 3" style="text;strokeColor=none;fillColor=none;spacingLeft=4;spacingRight=4;overflow=hidden;rotatable=0;points=[[0,0.5],[1,0.5]];portConstraint=eastwest;fontSize=12;" vertex="1" parent="NOb7rSY4H2DuV765HtXx-5">
          <mxGeometry y="56" width="160" height="30" as="geometry" />
        </mxCell>
        <mxCell id="NOb7rSY4H2DuV765HtXx-8" value="Item 3" style="text;strokeColor=none;fillColor=none;spacingLeft=4;spacingRight=4;overflow=hidden;rotatable=0;points=[[0,0.5],[1,0.5]];portConstraint=eastwest;fontSize=12;" vertex="1" parent="NOb7rSY4H2DuV765HtXx-5">
          <mxGeometry y="86" width="160" height="30" as="geometry" />
        </mxCell>
        <mxCell id="NOb7rSY4H2DuV765HtXx-13" style="edgeStyle=orthogonalEdgeStyle;rounded=0;orthogonalLoop=1;jettySize=auto;html=1;entryX=0.5;entryY=0;entryDx=0;entryDy=0;endArrow=none;endFill=0;" edge="1" parent="1" source="NOb7rSY4H2DuV765HtXx-9" target="ZA7bM_wyjtu-T4g4M8Mq-10">
          <mxGeometry relative="1" as="geometry" />
        </mxCell>
        <mxCell id="NOb7rSY4H2DuV765HtXx-9" value="orders" style="rhombus;whiteSpace=wrap;html=1;strokeColor=default;fillColor=none;" vertex="1" parent="1">
          <mxGeometry x="300" y="111" width="80" height="80" as="geometry" />
        </mxCell>
        <mxCell id="NOb7rSY4H2DuV765HtXx-10" style="edgeStyle=orthogonalEdgeStyle;rounded=0;orthogonalLoop=1;jettySize=auto;html=1;endArrow=none;endFill=0;" edge="1" parent="1" source="NOb7rSY4H2DuV765HtXx-7" target="NOb7rSY4H2DuV765HtXx-9">
          <mxGeometry relative="1" as="geometry" />
        </mxCell>
        <mxCell id="NOb7rSY4H2DuV765HtXx-11" style="edgeStyle=orthogonalEdgeStyle;rounded=0;orthogonalLoop=1;jettySize=auto;html=1;entryX=1;entryY=0.5;entryDx=0;entryDy=0;endArrow=none;endFill=0;" edge="1" parent="1" source="NOb7rSY4H2DuV765HtXx-3" target="NOb7rSY4H2DuV765HtXx-9">
          <mxGeometry relative="1" as="geometry" />
        </mxCell>
        <mxCell id="NOb7rSY4H2DuV765HtXx-14" value="User" style="swimlane;fontStyle=0;childLayout=stackLayout;horizontal=1;startSize=26;horizontalStack=0;resizeParent=1;resizeParentMax=0;resizeLast=0;collapsible=1;marginBottom=0;align=center;fontSize=14;" vertex="1" parent="1">
          <mxGeometry x="40" y="490" width="160" height="116" as="geometry" />
        </mxCell>
        <mxCell id="NOb7rSY4H2DuV765HtXx-15" value="0000" style="text;strokeColor=none;fillColor=none;spacingLeft=4;spacingRight=4;overflow=hidden;rotatable=0;points=[[0,0.5],[1,0.5]];portConstraint=eastwest;fontSize=12;" vertex="1" parent="NOb7rSY4H2DuV765HtXx-14">
          <mxGeometry y="26" width="160" height="30" as="geometry" />
        </mxCell>
        <mxCell id="NOb7rSY4H2DuV765HtXx-16" value="Item 3" style="text;strokeColor=none;fillColor=none;spacingLeft=4;spacingRight=4;overflow=hidden;rotatable=0;points=[[0,0.5],[1,0.5]];portConstraint=eastwest;fontSize=12;" vertex="1" parent="NOb7rSY4H2DuV765HtXx-14">
          <mxGeometry y="56" width="160" height="30" as="geometry" />
        </mxCell>
        <mxCell id="NOb7rSY4H2DuV765HtXx-17" value="Item 3" style="text;strokeColor=none;fillColor=none;spacingLeft=4;spacingRight=4;overflow=hidden;rotatable=0;points=[[0,0.5],[1,0.5]];portConstraint=eastwest;fontSize=12;" vertex="1" parent="NOb7rSY4H2DuV765HtXx-14">
          <mxGeometry y="86" width="160" height="30" as="geometry" />
        </mxCell>
        <mxCell id="NOb7rSY4H2DuV765HtXx-25" style="edgeStyle=orthogonalEdgeStyle;rounded=0;orthogonalLoop=1;jettySize=auto;html=1;endArrow=none;endFill=0;" edge="1" parent="1" source="NOb7rSY4H2DuV765HtXx-18" target="NOb7rSY4H2DuV765HtXx-1">
          <mxGeometry relative="1" as="geometry" />
        </mxCell>
        <mxCell id="NOb7rSY4H2DuV765HtXx-18" value="Reservation" style="swimlane;fontStyle=0;childLayout=stackLayout;horizontal=1;startSize=26;horizontalStack=0;resizeParent=1;resizeParentMax=0;resizeLast=0;collapsible=1;marginBottom=0;align=center;fontSize=14;" vertex="1" parent="1">
          <mxGeometry x="470" y="480" width="160" height="116" as="geometry" />
        </mxCell>
        <mxCell id="NOb7rSY4H2DuV765HtXx-19" value="0000" style="text;strokeColor=none;fillColor=none;spacingLeft=4;spacingRight=4;overflow=hidden;rotatable=0;points=[[0,0.5],[1,0.5]];portConstraint=eastwest;fontSize=12;" vertex="1" parent="NOb7rSY4H2DuV765HtXx-18">
          <mxGeometry y="26" width="160" height="30" as="geometry" />
        </mxCell>
        <mxCell id="NOb7rSY4H2DuV765HtXx-20" value="Item 3" style="text;strokeColor=none;fillColor=none;spacingLeft=4;spacingRight=4;overflow=hidden;rotatable=0;points=[[0,0.5],[1,0.5]];portConstraint=eastwest;fontSize=12;" vertex="1" parent="NOb7rSY4H2DuV765HtXx-18">
          <mxGeometry y="56" width="160" height="30" as="geometry" />
        </mxCell>
        <mxCell id="NOb7rSY4H2DuV765HtXx-21" value="Item 3" style="text;strokeColor=none;fillColor=none;spacingLeft=4;spacingRight=4;overflow=hidden;rotatable=0;points=[[0,0.5],[1,0.5]];portConstraint=eastwest;fontSize=12;" vertex="1" parent="NOb7rSY4H2DuV765HtXx-18">
          <mxGeometry y="86" width="160" height="30" as="geometry" />
        </mxCell>
        <mxCell id="NOb7rSY4H2DuV765HtXx-22" value="1..*" style="text;html=1;strokeColor=none;fillColor=none;align=center;verticalAlign=middle;whiteSpace=wrap;rounded=0;" vertex="1" parent="1">
          <mxGeometry x="200" y="123" width="60" height="30" as="geometry" />
        </mxCell>
        <mxCell id="NOb7rSY4H2DuV765HtXx-23" value="1..*" style="text;html=1;strokeColor=none;fillColor=none;align=center;verticalAlign=middle;whiteSpace=wrap;rounded=0;" vertex="1" parent="1">
          <mxGeometry x="410" y="123" width="60" height="30" as="geometry" />
        </mxCell>
        <mxCell id="NOb7rSY4H2DuV765HtXx-24" value="1..*" style="text;html=1;strokeColor=none;fillColor=none;align=center;verticalAlign=middle;whiteSpace=wrap;rounded=0;" vertex="1" parent="1">
          <mxGeometry x="340" y="250" width="60" height="30" as="geometry" />
        </mxCell>
        <mxCell id="NOb7rSY4H2DuV765HtXx-28" value="keeps" style="text;html=1;strokeColor=none;fillColor=none;align=center;verticalAlign=middle;whiteSpace=wrap;rounded=0;" vertex="1" parent="1">
          <mxGeometry x="550" y="330" width="60" height="30" as="geometry" />
        </mxCell>
        <mxCell id="NOb7rSY4H2DuV765HtXx-29" value="" style="triangle;whiteSpace=wrap;html=1;strokeColor=default;fillColor=#000000;direction=north;" vertex="1" parent="1">
          <mxGeometry x="570" y="310" width="20" height="20" as="geometry" />
        </mxCell>
        <mxCell id="NOb7rSY4H2DuV765HtXx-30" value="1..1" style="text;html=1;strokeColor=none;fillColor=none;align=center;verticalAlign=middle;whiteSpace=wrap;rounded=0;" vertex="1" parent="1">
          <mxGeometry x="550" y="200" width="60" height="30" as="geometry" />
        </mxCell>
        <mxCell id="NOb7rSY4H2DuV765HtXx-31" value="0..*" style="text;html=1;strokeColor=none;fillColor=none;align=center;verticalAlign=middle;whiteSpace=wrap;rounded=0;" vertex="1" parent="1">
          <mxGeometry x="550" y="450" width="60" height="30" as="geometry" />
        </mxCell>
        <mxCell id="NOb7rSY4H2DuV765HtXx-32" style="edgeStyle=orthogonalEdgeStyle;rounded=0;orthogonalLoop=1;jettySize=auto;html=1;entryX=0.006;entryY=0.833;entryDx=0;entryDy=0;entryPerimeter=0;endArrow=none;endFill=0;" edge="1" parent="1" source="NOb7rSY4H2DuV765HtXx-16" target="NOb7rSY4H2DuV765HtXx-20">
          <mxGeometry relative="1" as="geometry" />
        </mxCell>
        <mxCell id="NOb7rSY4H2DuV765HtXx-33" value="makes" style="text;html=1;strokeColor=none;fillColor=none;align=center;verticalAlign=middle;whiteSpace=wrap;rounded=0;" vertex="1" parent="1">
          <mxGeometry x="280" y="530" width="60" height="30" as="geometry" />
        </mxCell>
        <mxCell id="NOb7rSY4H2DuV765HtXx-34" value="" style="triangle;whiteSpace=wrap;html=1;strokeColor=default;fillColor=#000000;direction=east;" vertex="1" parent="1">
          <mxGeometry x="335" y="535" width="20" height="20" as="geometry" />
        </mxCell>
        <mxCell id="NOb7rSY4H2DuV765HtXx-36" value="1..*" style="text;html=1;strokeColor=none;fillColor=none;align=center;verticalAlign=middle;whiteSpace=wrap;rounded=0;" vertex="1" parent="1">
          <mxGeometry x="410" y="563" width="60" height="30" as="geometry" />
        </mxCell>
        <mxCell id="NOb7rSY4H2DuV765HtXx-37" value="1..1" style="text;html=1;strokeColor=none;fillColor=none;align=center;verticalAlign=middle;whiteSpace=wrap;rounded=0;" vertex="1" parent="1">
          <mxGeometry x="200" y="562" width="60" height="30" as="geometry" />
        </mxCell>
        <mxCell id="NOb7rSY4H2DuV765HtXx-38" value="borrows" style="text;html=1;strokeColor=none;fillColor=none;align=center;verticalAlign=middle;whiteSpace=wrap;rounded=0;" vertex="1" parent="1">
          <mxGeometry x="60" y="310" width="60" height="30" as="geometry" />
        </mxCell>
        <mxCell id="NOb7rSY4H2DuV765HtXx-39" value="" style="triangle;whiteSpace=wrap;html=1;strokeColor=default;fillColor=#000000;direction=north;" vertex="1" parent="1">
          <mxGeometry x="80" y="290" width="20" height="20" as="geometry" />
        </mxCell>
        <mxCell id="NOb7rSY4H2DuV765HtXx-41" value="0..*" style="text;html=1;strokeColor=none;fillColor=none;align=center;verticalAlign=middle;whiteSpace=wrap;rounded=0;" vertex="1" parent="1">
          <mxGeometry x="120" y="200" width="60" height="30" as="geometry" />
        </mxCell>
        <mxCell id="NOb7rSY4H2DuV765HtXx-42" value="1..1" style="text;html=1;strokeColor=none;fillColor=none;align=center;verticalAlign=middle;whiteSpace=wrap;rounded=0;" vertex="1" parent="1">
          <mxGeometry x="120" y="460" width="60" height="30" as="geometry" />
        </mxCell>
      </root>
    </mxGraphModel>
  </diagram>
</mxfile>
